<svg xmlns="http://www.w3.org/2000/svg" xmlns:xlink="http://www.w3.org/1999/xlink" xmlns:lucid="lucid" width="1202" height="582"><g transform="translate(-119 -179)" lucid:page-tab-id="0_0"><path d="M120 186a6 6 0 0 1 6-6h1188a6 6 0 0 1 6 6v568a6 6 0 0 1-6 6H126a6 6 0 0 1-6-6z" stroke="#3969a3" stroke-width="2" fill="#fff"/><use xlink:href="#a" transform="matrix(1,0,0,1,125,185) translate(6 27.33333333333333)"/><path d="M140 386a6 6 0 0 1 6-6h508a6 6 0 0 1 6 6v348a6 6 0 0 1-6 6H146a6 6 0 0 1-6-6z" stroke="#3969a3" stroke-width="2" fill="#cfe4ff"/><use xlink:href="#b" transform="matrix(1,0,0,1,145,385) translate(6 27.33333333333333)"/><path d="M446.9 265.76l.57-4.44c4.87 2.88 6.38 4.56 6.85 5.4-1.28.36-3.95 0-7.43-.96zm-48.6-16.44c0-.12.1-.24.34-.24l-.12.48c-.12-.12-.23-.12-.23-.24zm37.7 56.4c-.13.12-.13.24-.13.36 0 .36-1.04 2.04-5.57 3.84-2.08.72-4.52 1.44-7.3 2.16-7.08 1.56-15.78 2.52-24.36 2.52-23.32 0-37.36-6-37.36-8.52v-.36l-10.55-77.76c.7.48 1.4.84 2.1 1.2.22.12.45.24.68.24.7.36 1.4.6 2.1.96.35.12.58.24.93.36.8.24 1.5.48 2.32.84.23 0 .46.12.7.12 1.04.36 2.2.72 3.24.96.34.12.7.24.92.24.93.24 1.74.48 2.67.6.34.12.8.24 1.15.24 1.04.24 1.97.48 3 .6.25.12.48.12.7.12l3.84.72c.34 0 .8 0 1.15.12l3 .36c.36 0 .83.12 1.17.12l3.72.36h.46l4.18.36h1.16c1.04.12 2.08.12 3.24.12.35 0 .82 0 1.16.12H402.8c.36-.12.82-.12 1.17-.12 1.16 0 2.2 0 3.25-.12h1.16l4.18-.36h.46l3.7-.36c.36 0 .82-.12 1.17-.12l3-.36c.36-.12.82-.12 1.17-.12l3.83-.72c.23 0 .46 0 .7-.12 1.04-.12 1.96-.36 3-.6.47 0 .82-.12 1.17-.24.93-.12 1.74-.36 2.67-.6.23-.12.58-.12.92-.24 1.05-.24 2.2-.6 3.25-.96.24 0 .48-.12.7-.12.82-.36 1.63-.6 2.33-.84.35-.12.58-.24.93-.36.7-.36 1.4-.6 2.08-.96.24 0 .47-.12.7-.24.7-.36 1.5-.72 2.1-1.2l-4.88 36.24c-9.98-3.12-24.02-8.88-37.24-15.12-.12-3-2.67-5.4-5.68-5.4-3.25 0-5.8 2.52-5.8 5.64 0 3.12 2.55 5.76 5.8 5.76 1.16 0 2.32-.48 3.24-1.08 11.95 5.64 27.15 12.36 38.98 15.72l-4.87 36zM398.63 205.4c28.53 0 48.6 8.88 49.06 13.68l-.1.6c0 .12-.13.36-.24.48-.12.24-.12.36-.24.48-.1.12-.34.36-.46.48s-.23.36-.46.48c-.12.12-.35.36-.58.48-.24.12-.47.36-.7.48-.23.12-.46.36-.8.48-.24.24-.48.36-.82.48-.24.24-.58.36-.93.48-.35.24-.7.36-1.05.48-.34.24-.8.36-1.16.48-.46.24-.8.36-1.27.48-.36.24-.82.36-1.3.48-.45.24-.92.36-1.38.48-.46.12-.93.36-1.5.48-.47.12-.94.24-1.52.48-.58.12-1.16.24-1.62.36l-1.74.36c-.58.24-1.28.36-1.86.48-.58.12-1.16.24-1.85.36-.58.12-1.28.24-1.97.36-.7.12-1.28.24-1.98.24-.7.12-1.4.24-2.2.36-.7.12-1.28.24-1.97.24-.8.12-1.62.24-2.43.24-.7.12-1.4.24-2.1.24-.9.12-1.84.12-2.77.24-.7 0-1.28.12-1.97.12-1.05.12-2.1.12-3.13.12-.58.12-1.16.12-1.86.12-1.62 0-3.36.12-5.1.12-1.86 0-3.6-.12-5.22-.12-.7 0-1.28 0-1.86-.12-1.04 0-2.1 0-3.13-.12-.7 0-1.4-.12-2.1-.12-.92-.12-1.85-.12-2.66-.24-.7 0-1.4-.12-2.1-.24-.8 0-1.6-.12-2.42-.24-.7 0-1.28-.12-1.97-.24-.82-.12-1.5-.24-2.2-.36-.7 0-1.4-.12-1.98-.24-.7-.12-1.4-.24-1.97-.36-.7-.12-1.28-.24-1.86-.36-.58-.12-1.27-.24-1.85-.48l-1.74-.36c-.47-.12-1.05-.24-1.63-.36-.58-.24-1.04-.36-1.5-.48-.6-.12-1.05-.36-1.5-.48-.48-.12-.94-.24-1.4-.48-.47-.12-.93-.24-1.28-.48-.47-.12-.8-.24-1.28-.48-.36-.12-.82-.24-1.17-.48-.35-.12-.7-.24-1.04-.48-.24-.12-.7-.24-.94-.48-.35-.12-.58-.24-.8-.48-.36-.12-.6-.36-.82-.48-.24-.12-.47-.36-.7-.48-.23-.12-.46-.36-.58-.48-.23-.12-.35-.36-.46-.48l-.47-.48c-.1-.12-.1-.36-.23-.48-.12-.12-.23-.36-.23-.48l-.12-.6c.47-4.8 20.53-13.68 49.2-13.68zm61.24 60.72c-.58-3.24-4.17-6.48-11.6-10.68l4.76-34.8.12-1.08v-.36c0-11.28-28.77-19.2-54.52-19.2-25.87 0-54.64 7.92-54.64 19.2v.36l.12 1.08 11.6 85.56c.46 10.08 26.44 13.8 42.92 13.8 9.04 0 18.1-.96 25.63-2.64 3.02-.72 5.7-1.56 8-2.4 5.92-2.4 9.05-5.28 9.17-8.76l4.76-35.16c2.55.6 4.98.84 6.96.84 2.66 0 4.64-.48 5.68-1.8.93-1.08 1.4-2.52 1.04-3.96z" stroke="#000" stroke-opacity="0" fill="#6db1ff"/><use xlink:href="#c" transform="matrix(1,0,0,1,228,329) translate(103.72222222222223 17.77777777777778)"/><path d="M210 446a6 6 0 0 1 6-6h148a6 6 0 0 1 6 6v68a6 6 0 0 1-6 6H216a6 6 0 0 1-6-6z" stroke="#ced4db" stroke-width="2" fill="#f2f3f5"/><use xlink:href="#d" transform="matrix(1,0,0,1,215,445) translate(10.925925925925924 39.37934027777778)"/><path d="M210 546a6 6 0 0 1 6-6h148a6 6 0 0 1 6 6v68a6 6 0 0 1-6 6H216a6 6 0 0 1-6-6z" stroke="#ffe342" stroke-width="2" fill="#fcfcca"/><use xlink:href="#e" transform="matrix(1,0,0,1,215,545) translate(53.45679012345679 39.37934027777778)"/><path d="M210 646a6 6 0 0 1 6-6h148a6 6 0 0 1 6 6v68a6 6 0 0 1-6 6H216a6 6 0 0 1-6-6z" stroke="#54c45e" stroke-width="2" fill="#e3fae3"/><use xlink:href="#f" transform="matrix(1,0,0,1,215,645) translate(56.48148148148148 39.37934027777778)"/><path d="M430 446a6 6 0 0 1 6-6h148a6 6 0 0 1 6 6v68a6 6 0 0 1-6 6H436a6 6 0 0 1-6-6z" stroke="#3969a3" stroke-width="2" fill="#478add"/><use xlink:href="#g" transform="matrix(1,0,0,1,435,445) translate(32.43827160493827 39.37934027777778)"/><path d="M430 546a6 6 0 0 1 6-6h148a6 6 0 0 1 6 6v68a6 6 0 0 1-6 6H436a6 6 0 0 1-6-6z" stroke="#3969a3" stroke-width="2" fill="#478add"/><use xlink:href="#g" transform="matrix(1,0,0,1,435,545) translate(32.43827160493827 39.37934027777778)"/><path d="M430 646a6 6 0 0 1 6-6h148a6 6 0 0 1 6 6v68a6 6 0 0 1-6 6H436a6 6 0 0 1-6-6z" stroke="#3969a3" stroke-width="2" fill="#478add"/><use xlink:href="#g" transform="matrix(1,0,0,1,435,645) translate(32.43827160493827 39.37934027777778)"/><path d="M780 386a6 6 0 0 1 6-6h508a6 6 0 0 1 6 6v348a6 6 0 0 1-6 6H786a6 6 0 0 1-6-6z" stroke="#cc5353" stroke-width="2" fill="#ffd9d9"/><use xlink:href="#h" transform="matrix(1,0,0,1,785,385) translate(6 27.333333333333332)"/><path d="M1086.9 265.76l.57-4.44c4.87 2.88 6.38 4.56 6.85 5.4-1.28.36-3.95 0-7.43-.96zm-48.6-16.44c0-.12.1-.24.34-.24l-.12.48c-.12-.12-.23-.12-.23-.24zm37.7 56.4c-.13.12-.13.24-.13.36 0 .36-1.04 2.04-5.57 3.84-2.08.72-4.52 1.44-7.3 2.16-7.08 1.56-15.78 2.52-24.36 2.52-23.32 0-37.36-6-37.36-8.52v-.36l-10.55-77.76c.7.48 1.4.84 2.1 1.2.22.12.45.24.68.24.7.36 1.4.6 2.1.96.35.12.58.24.93.36.8.24 1.5.48 2.32.84.23 0 .46.12.7.12 1.04.36 2.2.72 3.24.96.34.12.7.24.92.24.93.24 1.74.48 2.67.6.34.12.8.24 1.15.24 1.04.24 1.97.48 3 .6.25.12.48.12.7.12l3.84.72c.34 0 .8 0 1.15.12l3 .36c.36 0 .83.12 1.17.12l3.72.36h.46l4.18.36h1.16c1.04.12 2.08.12 3.24.12.35 0 .82 0 1.16.12H1042.8c.36-.12.82-.12 1.17-.12 1.16 0 2.2 0 3.25-.12h1.16l4.18-.36h.46l3.7-.36c.36 0 .82-.12 1.17-.12l3-.36c.36-.12.82-.12 1.17-.12l3.83-.72c.23 0 .46 0 .7-.12 1.04-.12 1.96-.36 3-.6.47 0 .82-.12 1.17-.24.93-.12 1.74-.36 2.67-.6.23-.12.58-.12.92-.24 1.05-.24 2.2-.6 3.25-.96.24 0 .48-.12.7-.12.82-.36 1.63-.6 2.33-.84.35-.12.58-.24.93-.36.7-.36 1.4-.6 2.08-.96.24 0 .47-.12.7-.24.7-.36 1.5-.72 2.1-1.2l-4.88 36.24c-9.98-3.12-24.02-8.88-37.24-15.12-.12-3-2.67-5.4-5.68-5.4-3.25 0-5.8 2.52-5.8 5.64 0 3.12 2.55 5.76 5.8 5.76 1.16 0 2.32-.48 3.24-1.08 11.95 5.64 27.15 12.36 38.98 15.72l-4.87 36zm-37.36-100.32c28.53 0 48.6 8.88 49.06 13.68l-.1.6c0 .12-.13.36-.24.48-.12.24-.12.36-.24.48-.1.12-.34.36-.46.48s-.23.36-.46.48c-.12.12-.35.36-.58.48-.24.12-.47.36-.7.48-.23.12-.46.36-.8.48-.24.24-.48.36-.82.48-.24.24-.58.36-.93.48-.35.24-.7.36-1.05.48-.34.24-.8.36-1.16.48-.46.24-.8.36-1.27.48-.36.24-.82.36-1.3.48-.45.24-.92.36-1.38.48-.46.12-.93.36-1.5.48-.47.12-.94.24-1.52.48-.58.12-1.16.24-1.62.36l-1.74.36c-.58.24-1.28.36-1.86.48-.58.12-1.16.24-1.85.36-.58.12-1.28.24-1.97.36-.7.12-1.28.24-1.98.24-.7.12-1.4.24-2.2.36-.7.12-1.28.24-1.97.24-.8.12-1.62.24-2.43.24-.7.12-1.4.24-2.1.24-.9.12-1.84.12-2.77.24-.7 0-1.28.12-1.97.12-1.05.12-2.1.12-3.13.12-.58.12-1.16.12-1.86.12-1.62 0-3.36.12-5.1.12-1.86 0-3.6-.12-5.22-.12-.7 0-1.28 0-1.86-.12-1.04 0-2.1 0-3.13-.12-.7 0-1.4-.12-2.1-.12-.92-.12-1.85-.12-2.66-.24-.7 0-1.4-.12-2.1-.24-.8 0-1.6-.12-2.42-.24-.7 0-1.28-.12-1.97-.24-.82-.12-1.5-.24-2.2-.36-.7 0-1.4-.12-1.98-.24-.7-.12-1.4-.24-1.97-.36-.7-.12-1.28-.24-1.86-.36-.58-.12-1.27-.24-1.85-.48l-1.74-.36c-.47-.12-1.05-.24-1.63-.36-.58-.24-1.04-.36-1.5-.48-.6-.12-1.05-.36-1.5-.48-.48-.12-.94-.24-1.4-.48-.47-.12-.93-.24-1.28-.48-.47-.12-.8-.24-1.28-.48-.36-.12-.82-.24-1.17-.48-.35-.12-.7-.24-1.04-.48-.24-.12-.7-.24-.94-.48-.35-.12-.58-.24-.8-.48-.36-.12-.6-.36-.82-.48-.24-.12-.47-.36-.7-.48-.23-.12-.46-.36-.58-.48-.23-.12-.35-.36-.46-.48l-.47-.48c-.1-.12-.1-.36-.23-.48-.12-.12-.23-.36-.23-.48l-.12-.6c.47-4.8 20.53-13.68 49.2-13.68zm61.24 60.72c-.58-3.24-4.17-6.48-11.6-10.68l4.76-34.8.12-1.08v-.36c0-11.28-28.77-19.2-54.52-19.2-25.87 0-54.64 7.92-54.64 19.2v.36l.12 1.08 11.6 85.56c.46 10.08 26.44 13.8 42.92 13.8 9.04 0 18.1-.96 25.63-2.64 3.02-.72 5.7-1.56 8-2.4 5.92-2.4 9.05-5.28 9.17-8.76l4.76-35.16c2.55.6 4.98.84 6.96.84 2.66 0 4.64-.48 5.68-1.8.93-1.08 1.4-2.52 1.04-3.96z" stroke="#000" stroke-opacity="0" fill="#fe7070"/><use xlink:href="#i" transform="matrix(1,0,0,1,868,329) translate(104.3395061728395 17.77777777777778)"/><path d="M850 446a6 6 0 0 1 6-6h148a6 6 0 0 1 6 6v68a6 6 0 0 1-6 6H856a6 6 0 0 1-6-6z" stroke="#ced4db" stroke-width="2" fill="#f2f3f5"/><use xlink:href="#d" transform="matrix(1,0,0,1,855,445) translate(10.925925925925924 39.37934027777778)"/><path d="M850 546a6 6 0 0 1 6-6h148a6 6 0 0 1 6 6v68a6 6 0 0 1-6 6H856a6 6 0 0 1-6-6z" stroke="#ffe342" stroke-width="2" fill="#fcfcca"/><use xlink:href="#e" transform="matrix(1,0,0,1,855,545) translate(53.45679012345679 39.37934027777778)"/><path d="M850 646a6 6 0 0 1 6-6h148a6 6 0 0 1 6 6v68a6 6 0 0 1-6 6H856a6 6 0 0 1-6-6z" stroke="#54c45e" stroke-width="2" fill="#e3fae3"/><use xlink:href="#f" transform="matrix(1,0,0,1,855,645) translate(56.48148148148148 39.37934027777778)"/><path d="M1070 446a6 6 0 0 1 6-6h148a6 6 0 0 1 6 6v68a6 6 0 0 1-6 6h-148a6 6 0 0 1-6-6z" stroke="#3969a3" stroke-width="2" fill="#478add"/><use xlink:href="#g" transform="matrix(1,0,0,1,1075,445) translate(32.43827160493827 39.37934027777778)"/><path d="M1070 546a6 6 0 0 1 6-6h148a6 6 0 0 1 6 6v68a6 6 0 0 1-6 6h-148a6 6 0 0 1-6-6z" stroke="#3969a3" stroke-width="2" fill="#478add"/><use xlink:href="#g" transform="matrix(1,0,0,1,1075,545) translate(32.43827160493827 39.37934027777778)"/><path d="M1070 646a6 6 0 0 1 6-6h148a6 6 0 0 1 6 6v68a6 6 0 0 1-6 6h-148a6 6 0 0 1-6-6z" stroke="#3969a3" stroke-width="2" fill="#478add"/><use xlink:href="#g" transform="matrix(1,0,0,1,1075,645) translate(32.43827160493827 39.37934027777778)"/><defs><path fill="#3969a3" d="M24-248c120-7 223 5 221 122C244-46 201 0 124 0H24v-248zM76-40c74 7 117-18 117-86 0-67-45-88-117-82v168" id="j"/><path fill="#3969a3" d="M110-194c64 0 96 36 96 99 0 64-35 99-97 99-61 0-95-36-95-99 0-62 34-99 96-99zm-1 164c35 0 45-28 45-65 0-40-10-65-43-65-34 0-45 26-45 65 0 36 10 65 43 65" id="k"/><path fill="#3969a3" d="M190-63c-7 42-38 67-86 67-59 0-84-38-90-98-12-110 154-137 174-36l-49 2c-2-19-15-32-35-32-30 0-35 28-38 64-6 74 65 87 74 30" id="l"/><path fill="#3969a3" d="M147 0L96-86 75-71V0H25v-261h50v150l67-79h53l-66 74L201 0h-54" id="m"/><path fill="#3969a3" d="M185-48c-13 30-37 53-82 52C43 2 14-33 14-96s30-98 90-98c62 0 83 45 84 108H66c0 31 8 55 39 56 18 0 30-7 34-22zm-45-69c5-46-57-63-70-21-2 6-4 13-4 21h74" id="n"/><path fill="#3969a3" d="M135-150c-39-12-60 13-60 57V0H25l-1-190h47c2 13-1 29 3 40 6-28 27-53 61-41v41" id="o"/><g id="a"><use transform="matrix(0.07407407407407406,0,0,0.07407407407407406,0,0)" xlink:href="#j"/><use transform="matrix(0.07407407407407406,0,0,0.07407407407407406,19.18518518518518,0)" xlink:href="#k"/><use transform="matrix(0.07407407407407406,0,0,0.07407407407407406,35.4074074074074,0)" xlink:href="#l"/><use transform="matrix(0.07407407407407406,0,0,0.07407407407407406,50.22222222222221,0)" xlink:href="#m"/><use transform="matrix(0.07407407407407406,0,0,0.07407407407407406,65.03703703703702,0)" xlink:href="#n"/><use transform="matrix(0.07407407407407406,0,0,0.07407407407407406,79.85185185185183,0)" xlink:href="#o"/></g><path fill="#3969a3" d="M138-131c27 9 52 24 51 61 0 53-36 74-89 74S11-19 11-69c0-35 22-54 51-61-78-25-46-121 38-121 51 0 83 19 83 66 0 30-18 49-45 54zm-38-16c24 0 32-13 32-36 1-23-11-34-32-34-22 0-33 12-32 34 0 22 9 36 32 36zm1 116c27 0 37-17 37-43 0-25-13-39-39-39-24 0-37 15-37 40 0 27 11 42 39 42" id="p"/><path fill="#3969a3" d="M137-138c1-29-70-34-71-4 15 46 118 7 119 86 1 83-164 76-172 9l43-7c4 19 20 25 44 25 33 8 57-30 24-41C81-84 22-81 20-136c-2-80 154-74 161-7" id="q"/><path fill="#3969a3" d="M14-72v-43h91v43H14" id="r"/><path fill="#3969a3" d="M85 4C-2 5 27-109 22-190h50c7 57-23 150 33 157 60-5 35-97 40-157h50l1 190h-47c-2-12 1-28-3-38-12 25-28 42-61 42" id="s"/><g id="b"><use transform="matrix(0.07407407407407406,0,0,0.07407407407407406,0,0)" xlink:href="#m"/><use transform="matrix(0.07407407407407406,0,0,0.07407407407407406,14.814814814814811,0)" xlink:href="#p"/><use transform="matrix(0.07407407407407406,0,0,0.07407407407407406,29.629629629629623,0)" xlink:href="#q"/><use transform="matrix(0.07407407407407406,0,0,0.07407407407407406,44.444444444444436,0)" xlink:href="#r"/><use transform="matrix(0.07407407407407406,0,0,0.07407407407407406,53.25925925925925,0)" xlink:href="#n"/><use transform="matrix(0.07407407407407406,0,0,0.07407407407407406,68.07407407407406,0)" xlink:href="#s"/></g><path fill="#1071e5" d="M100-194c62-1 85 37 85 99 1 63-27 99-86 99S16-35 15-95c0-66 28-99 85-99zM99-20c44 1 53-31 53-75 0-43-8-75-51-75s-53 32-53 75 10 74 51 75" id="t"/><path fill="#1071e5" d="M115-194c53 0 69 39 70 98 0 66-23 100-70 100C84 3 66-7 56-30L54 0H23l1-261h32v101c10-23 28-34 59-34zm-8 174c40 0 45-34 45-75 0-40-5-75-45-74-42 0-51 32-51 76 0 43 10 73 51 73" id="u"/><path fill="#1071e5" d="M24-231v-30h32v30H24zM-9 49c24 4 33-6 33-30v-209h32V24c2 40-23 58-65 49V49" id="v"/><path fill="#1071e5" d="M100-194c63 0 86 42 84 106H49c0 40 14 67 53 68 26 1 43-12 49-29l28 8c-11 28-37 45-77 45C44 4 14-33 15-96c1-61 26-98 85-98zm52 81c6-60-76-77-97-28-3 7-6 17-6 28h103" id="w"/><path fill="#1071e5" d="M96-169c-40 0-48 33-48 73s9 75 48 75c24 0 41-14 43-38l32 2c-6 37-31 61-74 61-59 0-76-41-82-99-10-93 101-131 147-64 4 7 5 14 7 22l-32 3c-4-21-16-35-41-35" id="x"/><path fill="#1071e5" d="M59-47c-2 24 18 29 38 22v24C64 9 27 4 27-40v-127H5v-23h24l9-43h21v43h35v23H59v120" id="y"/><path fill="#1071e5" d="M135-143c-3-34-86-38-87 0 15 53 115 12 119 90S17 21 10-45l28-5c4 36 97 45 98 0-10-56-113-15-118-90-4-57 82-63 122-42 12 7 21 19 24 35" id="z"/><path fill="#1071e5" d="M114-163C36-179 61-72 57 0H25l-1-190h30c1 12-1 29 2 39 6-27 23-49 58-41v29" id="A"/><path fill="#1071e5" d="M16-82v-28h88v28H16" id="B"/><path fill="#1071e5" d="M84 4C-5 8 30-112 23-190h32v120c0 31 7 50 39 49 72-2 45-101 50-169h31l1 190h-30c-1-10 1-25-2-33-11 22-28 36-60 37" id="C"/><g id="c"><use transform="matrix(0.06172839506172839,0,0,0.06172839506172839,0,0)" xlink:href="#t"/><use transform="matrix(0.06172839506172839,0,0,0.06172839506172839,12.345679012345679,0)" xlink:href="#u"/><use transform="matrix(0.06172839506172839,0,0,0.06172839506172839,24.691358024691358,0)" xlink:href="#v"/><use transform="matrix(0.06172839506172839,0,0,0.06172839506172839,29.5679012345679,0)" xlink:href="#w"/><use transform="matrix(0.06172839506172839,0,0,0.06172839506172839,41.913580246913575,0)" xlink:href="#x"/><use transform="matrix(0.06172839506172839,0,0,0.06172839506172839,53.02469135802468,0)" xlink:href="#y"/><use transform="matrix(0.06172839506172839,0,0,0.06172839506172839,59.197530864197525,0)" xlink:href="#z"/><use transform="matrix(0.06172839506172839,0,0,0.06172839506172839,70.30864197530863,0)" xlink:href="#y"/><use transform="matrix(0.06172839506172839,0,0,0.06172839506172839,76.48148148148147,0)" xlink:href="#t"/><use transform="matrix(0.06172839506172839,0,0,0.06172839506172839,88.82716049382715,0)" xlink:href="#A"/><use transform="matrix(0.06172839506172839,0,0,0.06172839506172839,96.17283950617283,0)" xlink:href="#w"/><use transform="matrix(0.06172839506172839,0,0,0.06172839506172839,108.51851851851852,0)" xlink:href="#B"/><use transform="matrix(0.06172839506172839,0,0,0.06172839506172839,115.8641975308642,0)" xlink:href="#w"/><use transform="matrix(0.06172839506172839,0,0,0.06172839506172839,128.20987654320987,0)" xlink:href="#C"/></g><path fill="#3a5a80" d="M96-169c-40 0-48 33-48 73s9 75 48 75c24 0 41-14 43-38l32 2c-6 37-31 61-74 61-59 0-76-41-82-99-10-93 101-131 147-64 4 7 5 14 7 22l-32 3c-4-21-16-35-41-35" id="D"/><path fill="#3a5a80" d="M100-194c62-1 85 37 85 99 1 63-27 99-86 99S16-35 15-95c0-66 28-99 85-99zM99-20c44 1 53-31 53-75 0-43-8-75-51-75s-53 32-53 75 10 74 51 75" id="E"/><path fill="#3a5a80" d="M117-194c89-4 53 116 60 194h-32v-121c0-31-8-49-39-48C34-167 62-67 57 0H25l-1-190h30c1 10-1 24 2 32 11-22 29-35 61-36" id="F"/><path fill="#3a5a80" d="M59-47c-2 24 18 29 38 22v24C64 9 27 4 27-40v-127H5v-23h24l9-43h21v43h35v23H59v120" id="G"/><path fill="#3a5a80" d="M114-163C36-179 61-72 57 0H25l-1-190h30c1 12-1 29 2 39 6-27 23-49 58-41v29" id="H"/><path fill="#3a5a80" d="M24 0v-261h32V0H24" id="I"/><path fill="#3a5a80" d="M16-82v-28h88v28H16" id="J"/><path fill="#3a5a80" d="M115-194c55 1 70 41 70 98S169 2 115 4C84 4 66-9 55-30l1 105H24l-1-265h31l2 30c10-21 28-34 59-34zm-8 174c40 0 45-34 45-75s-6-73-45-74c-42 0-51 32-51 76 0 43 10 73 51 73" id="K"/><path fill="#3a5a80" d="M141-36C126-15 110 5 73 4 37 3 15-17 15-53c-1-64 63-63 125-63 3-35-9-54-41-54-24 1-41 7-42 31l-33-3c5-37 33-52 76-52 45 0 72 20 72 64v82c-1 20 7 32 28 27v20c-31 9-61-2-59-35zM48-53c0 20 12 33 32 33 41-3 63-29 60-74-43 2-92-5-92 41" id="L"/><path fill="#3a5a80" d="M100-194c63 0 86 42 84 106H49c0 40 14 67 53 68 26 1 43-12 49-29l28 8c-11 28-37 45-77 45C44 4 14-33 15-96c1-61 26-98 85-98zm52 81c6-60-76-77-97-28-3 7-6 17-6 28h103" id="M"/><g id="d"><use transform="matrix(0.06172839506172839,0,0,0.06172839506172839,0,0)" xlink:href="#D"/><use transform="matrix(0.06172839506172839,0,0,0.06172839506172839,11.11111111111111,0)" xlink:href="#E"/><use transform="matrix(0.06172839506172839,0,0,0.06172839506172839,23.45679012345679,0)" xlink:href="#F"/><use transform="matrix(0.06172839506172839,0,0,0.06172839506172839,35.80246913580247,0)" xlink:href="#G"/><use transform="matrix(0.06172839506172839,0,0,0.06172839506172839,41.97530864197531,0)" xlink:href="#H"/><use transform="matrix(0.06172839506172839,0,0,0.06172839506172839,49.32098765432099,0)" xlink:href="#E"/><use transform="matrix(0.06172839506172839,0,0,0.06172839506172839,61.666666666666664,0)" xlink:href="#I"/><use transform="matrix(0.06172839506172839,0,0,0.06172839506172839,66.5432098765432,0)" xlink:href="#J"/><use transform="matrix(0.06172839506172839,0,0,0.06172839506172839,73.88888888888889,0)" xlink:href="#K"/><use transform="matrix(0.06172839506172839,0,0,0.06172839506172839,86.23456790123457,0)" xlink:href="#I"/><use transform="matrix(0.06172839506172839,0,0,0.06172839506172839,91.11111111111111,0)" xlink:href="#L"/><use transform="matrix(0.06172839506172839,0,0,0.06172839506172839,103.4567901234568,0)" xlink:href="#F"/><use transform="matrix(0.06172839506172839,0,0,0.06172839506172839,115.80246913580248,0)" xlink:href="#M"/></g><path fill="#3a5a80" d="M24-231v-30h32v30H24zM24 0v-190h32V0H24" id="N"/><path fill="#3a5a80" d="M101-234c-31-9-42 10-38 44h38v23H63V0H32v-167H5v-23h27c-7-52 17-82 69-68v24" id="O"/><g id="e"><use transform="matrix(0.06172839506172839,0,0,0.06172839506172839,0,0)" xlink:href="#N"/><use transform="matrix(0.06172839506172839,0,0,0.06172839506172839,4.876543209876543,0)" xlink:href="#F"/><use transform="matrix(0.06172839506172839,0,0,0.06172839506172839,17.22222222222222,0)" xlink:href="#O"/><use transform="matrix(0.06172839506172839,0,0,0.06172839506172839,23.39506172839506,0)" xlink:href="#H"/><use transform="matrix(0.06172839506172839,0,0,0.06172839506172839,30.74074074074074,0)" xlink:href="#L"/></g><g id="f"><use transform="matrix(0.06172839506172839,0,0,0.06172839506172839,0,0)" xlink:href="#L"/><use transform="matrix(0.06172839506172839,0,0,0.06172839506172839,12.345679012345679,0)" xlink:href="#K"/><use transform="matrix(0.06172839506172839,0,0,0.06172839506172839,24.691358024691358,0)" xlink:href="#K"/></g><path fill="#fff" d="M115-194c55 1 70 41 70 98S169 2 115 4C84 4 66-9 55-30l1 105H24l-1-265h31l2 30c10-21 28-34 59-34zm-8 174c40 0 45-34 45-75s-6-73-45-74c-42 0-51 32-51 76 0 43 10 73 51 73" id="P"/><path fill="#fff" d="M100-194c62-1 85 37 85 99 1 63-27 99-86 99S16-35 15-95c0-66 28-99 85-99zM99-20c44 1 53-31 53-75 0-43-8-75-51-75s-53 32-53 75 10 74 51 75" id="Q"/><path fill="#fff" d="M135-143c-3-34-86-38-87 0 15 53 115 12 119 90S17 21 10-45l28-5c4 36 97 45 98 0-10-56-113-15-118-90-4-57 82-63 122-42 12 7 21 19 24 35" id="R"/><path fill="#fff" d="M59-47c-2 24 18 29 38 22v24C64 9 27 4 27-40v-127H5v-23h24l9-43h21v43h35v23H59v120" id="S"/><path fill="#fff" d="M177-190C167-65 218 103 67 71c-23-6-38-20-44-43l32-5c15 47 100 32 89-28v-30C133-14 115 1 83 1 29 1 15-40 15-95c0-56 16-97 71-98 29-1 48 16 59 35 1-10 0-23 2-32h30zM94-22c36 0 50-32 50-73 0-42-14-75-50-75-39 0-46 34-46 75s6 73 46 73" id="T"/><path fill="#fff" d="M114-163C36-179 61-72 57 0H25l-1-190h30c1 12-1 29 2 39 6-27 23-49 58-41v29" id="U"/><path fill="#fff" d="M100-194c63 0 86 42 84 106H49c0 40 14 67 53 68 26 1 43-12 49-29l28 8c-11 28-37 45-77 45C44 4 14-33 15-96c1-61 26-98 85-98zm52 81c6-60-76-77-97-28-3 7-6 17-6 28h103" id="V"/><g id="g"><use transform="matrix(0.06172839506172839,0,0,0.06172839506172839,0,0)" xlink:href="#P"/><use transform="matrix(0.06172839506172839,0,0,0.06172839506172839,12.345679012345679,0)" xlink:href="#Q"/><use transform="matrix(0.06172839506172839,0,0,0.06172839506172839,24.691358024691358,0)" xlink:href="#R"/><use transform="matrix(0.06172839506172839,0,0,0.06172839506172839,35.80246913580247,0)" xlink:href="#S"/><use transform="matrix(0.06172839506172839,0,0,0.06172839506172839,41.97530864197531,0)" xlink:href="#T"/><use transform="matrix(0.06172839506172839,0,0,0.06172839506172839,54.32098765432099,0)" xlink:href="#U"/><use transform="matrix(0.06172839506172839,0,0,0.06172839506172839,61.666666666666664,0)" xlink:href="#V"/><use transform="matrix(0.06172839506172839,0,0,0.06172839506172839,74.01234567901234,0)" xlink:href="#R"/></g><path fill="#cc5353" d="M147 0L96-86 75-71V0H25v-261h50v150l67-79h53l-66 74L201 0h-54" id="W"/><path fill="#cc5353" d="M138-131c27 9 52 24 51 61 0 53-36 74-89 74S11-19 11-69c0-35 22-54 51-61-78-25-46-121 38-121 51 0 83 19 83 66 0 30-18 49-45 54zm-38-16c24 0 32-13 32-36 1-23-11-34-32-34-22 0-33 12-32 34 0 22 9 36 32 36zm1 116c27 0 37-17 37-43 0-25-13-39-39-39-24 0-37 15-37 40 0 27 11 42 39 42" id="X"/><path fill="#cc5353" d="M137-138c1-29-70-34-71-4 15 46 118 7 119 86 1 83-164 76-172 9l43-7c4 19 20 25 44 25 33 8 57-30 24-41C81-84 22-81 20-136c-2-80 154-74 161-7" id="Y"/><path fill="#cc5353" d="M14-72v-43h91v43H14" id="Z"/><path fill="#cc5353" d="M85 4C-2 5 27-109 22-190h50c7 57-23 150 33 157 60-5 35-97 40-157h50l1 190h-47c-2-12 1-28-3-38-12 25-28 42-61 42" id="aa"/><g id="h"><use transform="matrix(0.07407407407407407,0,0,0.07407407407407407,0,0)" xlink:href="#W"/><use transform="matrix(0.07407407407407407,0,0,0.07407407407407407,14.814814814814813,0)" xlink:href="#X"/><use transform="matrix(0.07407407407407407,0,0,0.07407407407407407,29.629629629629626,0)" xlink:href="#Y"/><use transform="matrix(0.07407407407407407,0,0,0.07407407407407407,44.44444444444444,0)" xlink:href="#Z"/><use transform="matrix(0.07407407407407407,0,0,0.07407407407407407,53.25925925925926,0)" xlink:href="#aa"/><use transform="matrix(0.07407407407407407,0,0,0.07407407407407407,69.48148148148148,0)" xlink:href="#Y"/></g><path fill="#e81313" d="M100-194c62-1 85 37 85 99 1 63-27 99-86 99S16-35 15-95c0-66 28-99 85-99zM99-20c44 1 53-31 53-75 0-43-8-75-51-75s-53 32-53 75 10 74 51 75" id="ab"/><path fill="#e81313" d="M115-194c53 0 69 39 70 98 0 66-23 100-70 100C84 3 66-7 56-30L54 0H23l1-261h32v101c10-23 28-34 59-34zm-8 174c40 0 45-34 45-75 0-40-5-75-45-74-42 0-51 32-51 76 0 43 10 73 51 73" id="ac"/><path fill="#e81313" d="M24-231v-30h32v30H24zM-9 49c24 4 33-6 33-30v-209h32V24c2 40-23 58-65 49V49" id="ad"/><path fill="#e81313" d="M100-194c63 0 86 42 84 106H49c0 40 14 67 53 68 26 1 43-12 49-29l28 8c-11 28-37 45-77 45C44 4 14-33 15-96c1-61 26-98 85-98zm52 81c6-60-76-77-97-28-3 7-6 17-6 28h103" id="ae"/><path fill="#e81313" d="M96-169c-40 0-48 33-48 73s9 75 48 75c24 0 41-14 43-38l32 2c-6 37-31 61-74 61-59 0-76-41-82-99-10-93 101-131 147-64 4 7 5 14 7 22l-32 3c-4-21-16-35-41-35" id="af"/><path fill="#e81313" d="M59-47c-2 24 18 29 38 22v24C64 9 27 4 27-40v-127H5v-23h24l9-43h21v43h35v23H59v120" id="ag"/><path fill="#e81313" d="M135-143c-3-34-86-38-87 0 15 53 115 12 119 90S17 21 10-45l28-5c4 36 97 45 98 0-10-56-113-15-118-90-4-57 82-63 122-42 12 7 21 19 24 35" id="ah"/><path fill="#e81313" d="M114-163C36-179 61-72 57 0H25l-1-190h30c1 12-1 29 2 39 6-27 23-49 58-41v29" id="ai"/><path fill="#e81313" d="M16-82v-28h88v28H16" id="aj"/><path fill="#e81313" d="M84 4C-5 8 30-112 23-190h32v120c0 31 7 50 39 49 72-2 45-101 50-169h31l1 190h-30c-1-10 1-25-2-33-11 22-28 36-60 37" id="ak"/><g id="i"><use transform="matrix(0.06172839506172839,0,0,0.06172839506172839,0,0)" xlink:href="#ab"/><use transform="matrix(0.06172839506172839,0,0,0.06172839506172839,12.345679012345679,0)" xlink:href="#ac"/><use transform="matrix(0.06172839506172839,0,0,0.06172839506172839,24.691358024691358,0)" xlink:href="#ad"/><use transform="matrix(0.06172839506172839,0,0,0.06172839506172839,29.5679012345679,0)" xlink:href="#ae"/><use transform="matrix(0.06172839506172839,0,0,0.06172839506172839,41.913580246913575,0)" xlink:href="#af"/><use transform="matrix(0.06172839506172839,0,0,0.06172839506172839,53.02469135802468,0)" xlink:href="#ag"/><use transform="matrix(0.06172839506172839,0,0,0.06172839506172839,59.197530864197525,0)" xlink:href="#ah"/><use transform="matrix(0.06172839506172839,0,0,0.06172839506172839,70.30864197530863,0)" xlink:href="#ag"/><use transform="matrix(0.06172839506172839,0,0,0.06172839506172839,76.48148148148147,0)" xlink:href="#ab"/><use transform="matrix(0.06172839506172839,0,0,0.06172839506172839,88.82716049382715,0)" xlink:href="#ai"/><use transform="matrix(0.06172839506172839,0,0,0.06172839506172839,96.17283950617283,0)" xlink:href="#ae"/><use transform="matrix(0.06172839506172839,0,0,0.06172839506172839,108.51851851851852,0)" xlink:href="#aj"/><use transform="matrix(0.06172839506172839,0,0,0.06172839506172839,115.8641975308642,0)" xlink:href="#ak"/><use transform="matrix(0.06172839506172839,0,0,0.06172839506172839,128.20987654320987,0)" xlink:href="#ah"/></g></defs></g></svg>